<svg width="24" height="24" viewBox="0 0 24 24" fill="none" xmlns="http://www.w3.org/2000/svg">
<g id="Danger Circle">
<path id="Fill" fill-rule="evenodd" clip-rule="evenodd" d="M12 2.9549C7.00411 2.9549 2.95483 7.00417 2.95483 12.0001C2.95483 16.995 7.00417 21.0453 12 21.0453C16.9949 21.0453 21.0452 16.9949 21.0452 12.0001C21.0452 7.00423 16.9949 2.9549 12 2.9549ZM1.45483 12.0001C1.45483 6.17575 6.17569 1.4549 12 1.4549C17.8232 1.4549 22.5452 6.17569 22.5452 12.0001C22.5452 17.8234 17.8233 22.5453 12 22.5453C6.17563 22.5453 1.45483 17.8233 1.45483 12.0001ZM12.75 6C12.75 5.58579 12.4142 5.25 12 5.25C11.5858 5.25 11.25 5.58579 11.25 6V13C11.25 13.4142 11.5858 13.75 12 13.75C12.4142 13.75 12.75 13.4142 12.75 13V6ZM11.9948 15.5C11.4425 15.5 10.9948 15.9477 10.9948 16.5C10.9948 17.0523 11.4425 17.5 11.9948 17.5H12.0048C12.557 17.5 13.0048 17.0523 13.0048 16.5C13.0048 15.9477 12.557 15.5 12.0048 15.5H11.9948Z" fill="#666A8B"/>
</g>
</svg>
