<svg width="192" height="118" viewBox="0 0 192 118" fill="none" xmlns="http://www.w3.org/2000/svg">
<path d="M170.575 88.1895H54.3865V113.032H170.575V88.1895Z" fill="#F0F1F6"/>
<path d="M76.6352 93.986H65.5107V102.681H76.6352V93.986Z" fill="white"/>
<path d="M163.159 45.9579H153.271L145.854 50.0982V85.7053H163.159V45.9579Z" fill="#F0F1F6"/>
<path d="M86.5237 19.8738H79.1074V62.1054H86.5237V19.8738Z" fill="#F0F1F6"/>
<path d="M54.3865 72.0421V79.4948H111.245V72.0421H54.3865Z" fill="#F0F1F6"/>
<path d="M69.2192 29.8106V69.558H71.6913V29.8106H69.2192Z" fill="#0E1556"/>
<path d="M93.9402 29.8106V69.558H96.4123V29.8106H93.9402Z" fill="#0E1556"/>
<path d="M96.2081 56.9306L70.2498 30.8451L69.3757 31.7234L95.3341 57.8089L96.2081 56.9306Z" fill="#0E1556"/>
<path d="M70.6852 57.3665L95.7695 32.1593L94.8955 31.281L69.8111 56.4882L70.6852 57.3665Z" fill="#0E1556"/>
<path d="M165.631 63.7988V45.958H183.385L165.631 63.7988Z" fill="#F0F1F6"/>
<path d="M163.159 43.4737V88.1895H165.631V43.4737H163.159Z" fill="#0E1556"/>
<path d="M143.382 55.8948V88.1895H145.854V55.8948H143.382Z" fill="#0E1556"/>
<path d="M155.743 43.4738V45.958H186.644V43.4738H155.743Z" fill="#0E1556"/>
<path d="M143.382 65.8317V68.3159H165.631V65.8317H143.382Z" fill="#0E1556"/>
<path d="M147.513 47.6011L145.765 49.3577L164.63 68.3143L166.378 66.5577L147.513 47.6011Z" fill="#0E1556"/>
<path d="M185.857 43.4738L162.883 66.5604L164.63 68.3159L189.351 43.4738H185.857Z" fill="#0E1556"/>
<path d="M143.382 55.8948C143.382 52.6005 144.685 49.4412 147.003 47.1118C149.321 44.7824 152.465 43.4738 155.743 43.4738V45.958C153.12 45.958 150.605 47.0049 148.751 48.8684C146.896 50.7319 145.854 53.2594 145.854 55.8948H143.382Z" fill="#0E1556"/>
<path d="M170.575 85.7053V115.516H173.047V85.7053H170.575Z" fill="#0E1556"/>
<path d="M51.9143 85.7053V115.516H54.3864V85.7053H51.9143Z" fill="#0E1556"/>
<path d="M173.047 85.7053H51.9143V88.1895H173.047V85.7053Z" fill="#0E1556"/>
<path d="M173.047 113.032H51.9143V115.516H173.047V113.032Z" fill="#0E1556"/>
<path d="M76.6351 93.986V102.681H71.6909V93.986H76.6351ZM77.8711 92.7439H70.4548V103.923H77.8711V92.7439Z" fill="#0E1556"/>
<path d="M86.5234 93.986V95.2281H85.2873V93.986H86.5234ZM87.7594 92.7439H84.0513V96.4702H87.7594V92.7439Z" fill="#0E1556"/>
<path d="M70.4549 93.986V102.681H65.5107V93.986H70.4549ZM71.691 92.7439H64.2747V103.923H71.691V92.7439Z" fill="#0E1556"/>
<path d="M80.3434 97.7123H76.6353V98.9544H80.3434V97.7123Z" fill="#0E1556"/>
<path d="M65.5106 97.7123H61.8025V98.9545H65.5106V97.7123Z" fill="#0E1556"/>
<path d="M63.0388 100.197V96.4702H61.8028V100.197H63.0388Z" fill="#0E1556"/>
<path d="M85.2874 93.986H79.1072V95.2281H85.2874V93.986Z" fill="#0E1556"/>
<path d="M80.343 98.9545V93.986H79.107V98.9545H80.343Z" fill="#0E1556"/>
<path d="M138.438 75.7684H135.966V88.1895H138.438V75.7684Z" fill="#0E1556"/>
<path d="M128.55 75.7684H126.078V88.1895H128.55V75.7684Z" fill="#0E1556"/>
<path d="M135.966 67.0737H133.494V78.2527H135.966V67.0737Z" fill="#0E1556"/>
<path d="M131.022 67.0737H128.55V78.2527H131.022V67.0737Z" fill="#0E1556"/>
<path d="M108.773 67.0737H106.301V72.0422H108.773V67.0737Z" fill="#0E1556"/>
<path d="M103.828 67.0737H101.356V72.0422H103.828V67.0737Z" fill="#0E1556"/>
<path d="M86.5239 62.1053H84.0518V72.0422H86.5239V62.1053Z" fill="#0E1556"/>
<path d="M81.5795 62.1053H79.1074V72.0422H81.5795V62.1053Z" fill="#0E1556"/>
<path d="M103.828 79.4948H101.356V88.1895H103.828V79.4948Z" fill="#0E1556"/>
<path d="M98.8842 79.4948H96.4121V88.1895H98.8842V79.4948Z" fill="#0E1556"/>
<path d="M69.2192 79.4948H66.7471V88.1895H69.2192V79.4948Z" fill="#0E1556"/>
<path d="M64.2746 79.4948H61.8025V88.1895H64.2746V79.4948Z" fill="#0E1556"/>
<path d="M86.5239 14.9053H84.0518V19.8737H86.5239V14.9053Z" fill="#0E1556"/>
<path d="M81.5795 14.9053H79.1074V19.8737H81.5795V14.9053Z" fill="#0E1556"/>
<path d="M123.605 62.1053V59.6211H113.717V62.1053H123.605Z" fill="#0E1556"/>
<path d="M123.605 57.1369V54.6527H113.717V57.1369H123.605Z" fill="#0E1556"/>
<path d="M138.438 75.7684H126.078V78.2526H138.438V75.7684Z" fill="#0E1556"/>
<path d="M113.717 81.979V79.4948H51.9142V81.979H113.717Z" fill="#0E1556"/>
<path d="M113.717 72.0422V69.558H51.9142V72.0422H113.717Z" fill="#0E1556"/>
<path d="M76.6353 64.5895H79.1074V17.3895H76.6353V64.5895Z" fill="#0E1556"/>
<path d="M86.5237 64.5895H88.9958V17.3895H86.5237V64.5895Z" fill="#0E1556"/>
<path d="M113.717 81.979V69.558H111.245V81.979H113.717Z" fill="#0E1556"/>
<path d="M54.3865 81.979V69.558H51.9144V81.979H54.3865Z" fill="#0E1556"/>
<path d="M88.9958 62.1053H76.6353V64.5896H88.9958V62.1053Z" fill="#0E1556"/>
<path d="M88.9958 17.3895H76.6353V19.8737H88.9958V17.3895Z" fill="#0E1556"/>
<path d="M74.1634 2.48425H69.2192V4.96846H74.1634V2.48425Z" fill="#0E1556"/>
<path d="M74.1634 7.45264H69.2192V9.93685H74.1634V7.45264Z" fill="#0E1556"/>
<path d="M96.4124 57.1368H69.2192V59.6211H96.4124V57.1368Z" fill="#0E1556"/>
<path d="M96.4124 29.8105H69.2192V32.2948H96.4124V29.8105Z" fill="#0E1556"/>
<path d="M135.966 67.0738C135.966 63.7795 134.664 60.6202 132.346 58.2908C130.028 55.9614 126.884 54.6527 123.605 54.6527V57.1369C126.228 57.1369 128.743 58.1838 130.598 60.0474C132.452 61.9109 133.494 64.4383 133.494 67.0738H135.966Z" fill="#0E1556"/>
<path d="M128.55 67.0737H131.022C131.022 65.0972 130.24 63.2016 128.85 61.8039C127.459 60.4063 125.572 59.6211 123.605 59.6211V62.1053C124.917 62.1053 126.174 62.6288 127.102 63.5605C128.029 64.4923 128.55 65.756 128.55 67.0737Z" fill="#0E1556"/>
<path d="M86.5238 14.9053C86.5238 11.611 85.2216 8.45169 82.9035 6.12229C80.5855 3.79289 77.4415 2.48425 74.1633 2.48425V4.96846C76.7859 4.96846 79.3011 6.01538 81.1555 7.8789C83.0099 9.74242 84.0517 12.2699 84.0517 14.9053H86.5238Z" fill="#0E1556"/>
<path d="M79.1075 14.9053H81.5796C81.5796 12.9287 80.7983 11.0331 79.4075 9.63546C78.0166 8.23782 76.1303 7.45264 74.1633 7.45264V9.93685C75.4746 9.93685 76.7322 10.4603 77.6594 11.3921C78.5866 12.3238 79.1075 13.5876 79.1075 14.9053Z" fill="#0E1556"/>
<path d="M113.717 54.6527C110.438 54.6527 107.295 55.9614 104.977 58.2908C102.658 60.6202 101.356 63.7795 101.356 67.0738H103.828C103.828 64.4383 104.87 61.9109 106.725 60.0474C108.579 58.1838 111.094 57.1369 113.717 57.1369V54.6527Z" fill="#0E1556"/>
<path d="M113.717 62.1053V59.6211C111.75 59.6211 109.864 60.4063 108.473 61.8039C107.082 63.2016 106.301 65.0972 106.301 67.0737H108.773C108.773 65.756 109.294 64.4923 110.221 63.5605C111.148 62.6288 112.406 62.1053 113.717 62.1053Z" fill="#0E1556"/>
<path d="M121.134 53.4105H116.189V63.3474H121.134V53.4105Z" fill="white"/>
<path d="M119.897 54.6527V62.1053H117.425V54.6527H119.897ZM122.369 52.1685H114.953V64.5895H122.369V52.1685Z" fill="#0E1556"/>
<path d="M119.897 54.6527H117.425V62.1053H119.897V54.6527Z" fill="#F0F1F6"/>
<path d="M135.966 78.2527H128.55V85.7053H135.966V78.2527Z" fill="#F0F1F6"/>
<path d="M86.5237 93.986H85.2876V95.2281H86.5237V93.986Z" fill="white"/>
<path d="M74.1634 4.96851H69.2192V7.45272H74.1634V4.96851Z" fill="#F0F1F6"/>
<path d="M84.0519 14.9053H81.5798V17.3895H84.0519V14.9053Z" fill="#F0F1F6"/>
<path d="M81.5796 14.9053H84.0517C84.0517 12.2699 83.0099 9.74246 81.1555 7.87894C79.3011 6.01542 76.7859 4.96851 74.1633 4.96851V7.45272C76.1303 7.45272 78.0166 8.2379 79.4075 9.63554C80.7983 11.0332 81.5796 12.9288 81.5796 14.9053Z" fill="#F0F1F6"/>
<path d="M131.022 67.0737H133.494C133.494 64.4383 132.452 61.9108 130.598 60.0473C128.743 58.1838 126.228 57.1368 123.605 57.1368V59.6211C125.572 59.6211 127.459 60.4062 128.85 61.8039C130.24 63.2015 131.022 65.0971 131.022 67.0737Z" fill="#F0F1F6"/>
<path d="M113.717 59.6211V57.1368C111.094 57.1368 108.579 58.1838 106.725 60.0473C104.87 61.9108 103.829 64.4383 103.829 67.0737H106.301C106.301 65.0971 107.082 63.2015 108.473 61.8039C109.864 60.4062 111.75 59.6211 113.717 59.6211Z" fill="#F0F1F6"/>
<path d="M114.953 57.1368H113.717V59.6211H114.953V57.1368Z" fill="#F0F1F6"/>
<path d="M123.605 57.1368H122.369V59.6211H123.605V57.1368Z" fill="#F0F1F6"/>
<path d="M106.301 67.0737H103.829V69.5579H106.301V67.0737Z" fill="#F0F1F6"/>
<path d="M133.494 67.0737H131.022V75.7685H133.494V67.0737Z" fill="#F0F1F6"/>
<path d="M84.0519 64.5895H81.5798V69.5579H84.0519V64.5895Z" fill="#F0F1F6"/>
<path d="M44.4979 100.611H2.47217V113.032H44.4979V100.611Z" fill="#F0F1F6"/>
<path d="M24.7211 65.8315H2.47217V98.1263H24.7211V65.8315Z" fill="#F0F1F6"/>
<path d="M12.3606 36.021H2.47217V40.9894H12.3606V36.021Z" fill="#0E1556"/>
<path d="M12.3606 45.9579H2.47217V50.9263H12.3606V45.9579Z" fill="#0E1556"/>
<path d="M24.7211 63.3474H2.47217V65.8316H24.7211V63.3474Z" fill="#0E1556"/>
<path d="M27.1931 63.3474H24.7209V98.1264H27.1931V63.3474Z" fill="#0E1556"/>
<path d="M9.88848 31.0526V63.3473H4.94427V31.0526H9.88848ZM12.3606 28.5684H2.47217V65.8315H12.3606V28.5684Z" fill="#0E1556"/>
<path d="M12.3605 26.0842V28.5684H2.4721V26.0842H12.3605ZM14.8326 23.6H0V31.0526H14.8326V23.6Z" fill="#0E1556"/>
<path d="M39.5538 53.4105V98.1263H34.6096V53.4105H39.5538ZM42.0259 50.9263H32.1375V100.61H42.0259V50.9263Z" fill="#0E1556"/>
<path d="M42.026 48.4421V50.9263H32.1376V48.4421H42.026ZM44.4981 45.9579H29.6655V53.4105H44.4981V45.9579Z" fill="#0E1556"/>
<path d="M46.97 113.032H0V115.516H46.97V113.032Z" fill="#0E1556"/>
<path d="M46.97 98.1263H0V100.611H46.97V98.1263Z" fill="#0E1556"/>
<path d="M2.4721 63.3474H0V115.516H2.4721V63.3474Z" fill="#0E1556"/>
<path d="M46.9699 98.1263H44.4978V115.516H46.9699V98.1263Z" fill="#0E1556"/>
<path d="M44.498 9.93678C44.4941 8.38064 44.0056 6.86475 43.1009 5.60174C42.1963 4.33873 40.9209 3.39198 39.4537 2.89427C37.9864 2.39656 36.401 2.37287 34.9197 2.82651C33.4384 3.28016 32.1355 4.18839 31.1939 5.4238C30.6325 6.16791 30.2134 7.01024 29.9579 7.90801C29.4131 7.04118 28.6632 6.32337 27.7751 5.81864C26.8871 5.31391 25.8885 5.03795 24.8685 5.0154C23.8485 4.99285 22.8388 5.22441 21.9295 5.68941C21.0202 6.15441 20.2397 6.83838 19.6574 7.68029C19.1547 8.41704 18.8173 9.25478 18.6686 10.1355C18.2396 9.66052 17.7109 9.28723 17.1208 9.0426C16.5307 8.79798 15.8939 8.68815 15.2564 8.72103C14.6189 8.75391 13.9966 8.92869 13.4346 9.23275C12.8725 9.5368 12.3846 9.96253 12.0063 10.4792C11.9897 10.5017 11.9746 10.5252 11.961 10.5496C11.9013 10.6291 11.8463 10.7121 11.7962 10.798C11.7796 10.8219 11.7644 10.8468 11.7508 10.8725C11.6932 10.9677 11.6437 11.063 11.5943 11.1623C11.595 11.1761 11.595 11.1899 11.5943 11.2037C11.5393 11.3197 11.4899 11.4397 11.4459 11.5639V11.5929C11.4089 11.6964 11.3759 11.8082 11.3471 11.92L11.3223 12.0152C11.2976 12.1091 11.277 12.2043 11.2605 12.3009C11.2605 12.334 11.2605 12.3672 11.2605 12.4003C11.2605 12.5286 11.2235 12.657 11.2152 12.7853C10.8405 12.5635 10.4141 12.445 9.97916 12.4417C9.87857 12.4423 9.77812 12.4492 9.67839 12.4624H9.60011C9.52648 12.4732 9.45356 12.4884 9.38174 12.5079H9.30757C9.21693 12.5328 9.12629 12.5659 9.03977 12.599C8.94672 12.6396 8.85594 12.6852 8.76783 12.7357C8.2954 12.9998 7.92216 13.4122 7.70526 13.9098C7.48835 14.4075 7.43976 14.9628 7.56691 15.4908C7.69407 16.0189 7.98996 16.4904 8.40927 16.8333C8.82859 17.1763 9.3482 17.3716 9.88852 17.3894C9.9974 17.3875 10.1061 17.3792 10.214 17.3646L10.4118 17.3273L10.5601 17.2942L10.7373 17.2321C10.7895 17.215 10.8404 17.1942 10.8897 17.17C10.9954 17.12 11.0985 17.0647 11.1987 17.0044L11.3223 16.9216L11.483 16.7973L11.5819 16.7063C11.6372 16.6556 11.6895 16.6016 11.7385 16.5448L11.8126 16.4578C11.8681 16.3895 11.919 16.3176 11.9651 16.2425L12.0104 16.1804C12.0691 16.0804 12.1214 15.9767 12.167 15.8699L12.237 15.9444C12.3359 16.0521 12.4389 16.1597 12.546 16.2591L12.7026 16.3916C12.8056 16.4744 12.9086 16.5531 13.0157 16.6276C13.0608 16.6617 13.1075 16.6935 13.1558 16.7228C13.3142 16.8252 13.4794 16.9165 13.6502 16.9961L13.6997 17.0168C13.8671 17.0913 14.0391 17.155 14.2147 17.2072C15.2723 17.53 16.413 17.4309 17.3997 16.9305C18.3865 16.4301 19.1434 15.5668 19.5132 14.5202C19.9923 15.2714 20.6259 15.911 21.3714 16.3957C22.1464 16.895 23.0225 17.2141 23.9359 17.3296C24.8492 17.445 25.7767 17.354 26.6506 17.0632C27.5244 16.7723 28.3226 16.2889 28.9867 15.6484C29.6509 15.0079 30.1643 14.2263 30.4894 13.3609C30.917 14.1867 31.4941 14.9253 32.191 15.5387C33.2626 16.4833 34.5825 17.0976 35.9926 17.308C37.4026 17.5183 38.8432 17.3159 40.1417 16.7248C41.4402 16.1337 42.5417 15.1791 43.3143 13.9753C44.0869 12.7714 44.4978 11.3693 44.498 9.93678Z" fill="#F0F1F6"/>
<path d="M37.0814 0C35.5816 0.000212591 34.1015 0.343266 32.7531 1.0032C31.4047 1.66313 30.2233 2.62264 29.2984 3.80912C27.3671 2.59137 25.0346 2.19173 22.8109 2.69762C20.5872 3.20351 18.6533 4.57374 17.4323 6.50863C16.7813 6.35319 16.1183 6.25347 15.4505 6.21053C14.1948 6.21056 12.9638 6.56137 11.895 7.22377C10.8262 7.88618 9.96168 8.8341 9.39798 9.96168C8.65973 10.0347 7.9473 10.2738 7.31348 10.6611C6.67965 11.0484 6.14069 11.5741 5.73651 12.1992C5.33234 12.8243 5.07333 13.5328 4.97866 14.2721C4.88399 15.0115 4.9561 15.7628 5.18963 16.4703C5.42317 17.1779 5.81216 17.8236 6.32776 18.3595C6.84337 18.8955 7.47237 19.308 8.16818 19.5664C8.86398 19.8249 9.60875 19.9227 10.3473 19.8526C11.0858 19.7825 11.7992 19.5463 12.4345 19.1615C13.6331 19.7639 14.9824 19.9957 16.3119 19.8277C17.6415 19.6596 18.8916 19.0993 19.9044 18.2175C19.8591 18.2548 19.822 18.2962 19.7767 18.3293C21.4174 19.4825 23.4064 20.026 25.4023 19.8666C27.3983 19.7072 29.2768 18.8549 30.7157 17.4557L30.6622 17.5095C31.8751 18.5451 33.3188 19.2711 34.8706 19.626C36.4225 19.9808 38.0366 19.954 39.576 19.5479C41.1153 19.1417 42.5344 18.3682 43.7126 17.293C44.8908 16.2178 45.7933 14.8727 46.3435 13.3719C46.8937 11.8712 47.0752 10.2592 46.8728 8.6729C46.6704 7.08656 46.0899 5.57277 45.1807 4.26012C44.2715 2.94746 43.0604 1.87474 41.6503 1.13307C40.2403 0.3914 38.6729 0.00270189 37.0814 0ZM37.0814 17.3895C35.2846 17.3901 33.5495 16.7304 32.2031 15.5346C31.5062 14.9212 30.9292 14.1826 30.5015 13.3568C30.1762 14.2231 29.6623 15.0054 28.9974 15.6464C28.3324 16.2873 27.5332 16.7708 26.6584 17.0613C25.7835 17.3519 24.855 17.4422 23.9409 17.3256C23.0268 17.209 22.1502 16.8885 21.3753 16.3875C20.6298 15.9027 19.9962 15.2632 19.5171 14.5119C19.1473 15.5586 18.3904 16.4219 17.4036 16.9223C16.4169 17.4227 15.2762 17.5218 14.2186 17.199C14.043 17.1467 13.871 17.0831 13.7036 17.0086L13.6541 16.9879C13.4832 16.9083 13.318 16.817 13.1597 16.7146C13.1114 16.6853 13.0647 16.6535 13.0196 16.6194C12.9125 16.5448 12.8095 16.4662 12.7065 16.3834L12.5499 16.2509C12.4428 16.1515 12.3398 16.0439 12.2409 15.9362L12.1709 15.8617C12.1253 15.9684 12.073 16.0722 12.0143 16.1722L11.969 16.2343C11.9229 16.3094 11.872 16.3813 11.8165 16.4496L11.7424 16.5366C11.6934 16.5934 11.6411 16.6473 11.5858 16.698L11.4869 16.7891L11.3262 16.9133L11.2026 16.9961C11.1024 17.0565 10.9993 17.1118 10.8936 17.1618C10.8443 17.186 10.7934 17.2067 10.7412 17.2239L10.564 17.286L10.4157 17.3191L10.2179 17.3563C10.11 17.371 10.0013 17.3792 9.8924 17.3812C9.34716 17.3795 8.81776 17.1968 8.38661 16.8613C7.95546 16.5259 7.64677 16.0567 7.50856 15.5267C7.37035 14.9967 7.4104 14.4356 7.62246 13.9308C7.83452 13.426 8.20671 13.0059 8.68108 12.7357C8.76918 12.6852 8.85995 12.6396 8.953 12.5991C9.03953 12.566 9.13017 12.5328 9.22082 12.508H9.29498C9.3668 12.4885 9.43972 12.4732 9.51335 12.4625H9.59163C9.68956 12.4425 9.78864 12.4286 9.88828 12.4211C10.3232 12.4243 10.7496 12.5429 11.1243 12.7647C11.1243 12.6364 11.1491 12.508 11.1697 12.3796C11.1697 12.3465 11.1697 12.3134 11.1697 12.2803C11.1697 12.2472 11.2067 12.0898 11.2315 11.9946L11.2562 11.8994C11.285 11.7876 11.318 11.6758 11.3551 11.5723V11.5433C11.4018 11.4191 11.4512 11.299 11.5034 11.1831C11.5041 11.1693 11.5041 11.1555 11.5034 11.1417C11.5528 11.0423 11.6023 10.9471 11.66 10.8519C11.6736 10.8261 11.6887 10.8012 11.7053 10.7773C11.7554 10.6914 11.8104 10.6085 11.8701 10.5289C11.8837 10.5045 11.8989 10.481 11.9154 10.4585C12.2938 9.94188 12.7816 9.51616 13.3437 9.2121C13.9058 8.90805 14.528 8.73327 15.1655 8.70039C15.803 8.66751 16.4398 8.77735 17.0299 9.02197C17.6201 9.26659 18.1487 9.63988 18.5777 10.1149C18.7264 9.23414 19.0638 8.3964 19.5666 7.65965C20.1488 6.81774 20.9294 6.13376 21.8386 5.66877C22.7479 5.20377 23.7576 4.97222 24.7776 4.99477C25.7976 5.01732 26.7962 5.29327 27.6842 5.798C28.5723 6.30273 29.3222 7.02054 29.867 7.88737C30.1225 6.98959 30.5417 6.14727 31.103 5.40316C31.8678 4.40075 32.8735 3.6101 34.0257 3.10546C35.178 2.60082 36.4389 2.39874 37.6902 2.5182C38.9415 2.63766 40.1421 3.07474 41.1791 3.7884C42.2162 4.50206 43.0557 5.46888 43.6189 6.59806C44.1821 7.72725 44.4505 8.98175 44.3988 10.2438C44.3472 11.5058 43.9772 12.7339 43.3236 13.8128C42.67 14.8916 41.7542 15.7859 40.6623 16.4115C39.5704 17.0372 38.3382 17.3737 37.0814 17.3895Z" fill="#0E1556"/>
<path d="M12.3606 26.0842H2.47217V28.5684H12.3606V26.0842Z" fill="#F0F1F6"/>
<path d="M42.0259 48.4421H32.1375V50.9263H42.0259V48.4421Z" fill="#F0F1F6"/>
<path d="M9.8883 31.0526H4.94409V36.021H9.8883V31.0526Z" fill="#F0F1F6"/>
<path d="M9.8883 40.9895H4.94409V45.9579H9.8883V40.9895Z" fill="#F0F1F6"/>
<path d="M9.8883 50.9263H4.94409V63.3473H9.8883V50.9263Z" fill="#F0F1F6"/>
<path d="M39.5538 73.2842H34.6096V98.1263H39.5538V73.2842Z" fill="#F0F1F6"/>
<path d="M9.8883 70.8V73.2842H7.41619V70.8H9.8883ZM12.3604 68.3158H4.94409V75.7684H12.3604V68.3158Z" fill="#0E1556"/>
<path d="M19.777 70.8V73.2842H17.3049V70.8H19.777ZM22.2491 68.3158H14.8328V75.7684H22.2491V68.3158Z" fill="#0E1556"/>
<path d="M9.8883 80.7369V83.2211H7.41619V80.7369H9.8883ZM12.3604 78.2527H4.94409V85.7053H12.3604V78.2527Z" fill="#0E1556"/>
<path d="M19.777 80.7369V83.2211H17.3049V80.7369H19.777ZM22.2491 78.2527H14.8328V85.7053H22.2491V78.2527Z" fill="#0E1556"/>
<path d="M9.8883 90.6737V93.1579H7.41619V90.6737H9.8883ZM12.3604 88.1895H4.94409V95.6421H12.3604V88.1895Z" fill="#0E1556"/>
<path d="M13.1844 105.579V108.063H7.41619V105.579H13.1844ZM15.6565 103.095H4.94409V110.547H15.6565V103.095Z" fill="#0E1556"/>
<path d="M26.3692 105.579V108.063H20.601V105.579H26.3692ZM28.8414 103.095H18.1289V110.547H28.8414V103.095Z" fill="#0E1556"/>
<path d="M39.5536 105.579V108.063H33.7853V105.579H39.5536ZM42.0257 103.095H31.3132V110.547H42.0257V103.095Z" fill="#0E1556"/>
<path d="M19.777 90.6737V93.1579H17.3049V90.6737H19.777ZM22.2491 88.1895H14.8328V95.6421H22.2491V88.1895Z" fill="#0E1556"/>
<path d="M42.0259 58.3789H32.1375V63.3473H42.0259V58.3789Z" fill="#0E1556"/>
<path d="M42.0259 68.3158H32.1375V73.2842H42.0259V68.3158Z" fill="#0E1556"/>
<path d="M39.5538 53.4105H34.6096V58.379H39.5538V53.4105Z" fill="#F0F1F6"/>
<path d="M39.5538 63.3474H34.6096V68.3158H39.5538V63.3474Z" fill="#F0F1F6"/>
<path d="M54.3861 74.9403H42.0256V76.1824H54.3861V74.9403Z" fill="#FF6903"/>
<path d="M54.3861 95.2281H42.0256V96.4702H54.3861V95.2281Z" fill="#FF6903"/>
<path d="M54.3862 106.821H44.4978V108.063H54.3862V106.821Z" fill="#FF6903"/>
<path d="M40.7898 78.8736C42.4965 78.8736 43.88 77.4833 43.88 75.7684C43.88 74.0534 42.4965 72.6631 40.7898 72.6631C39.0832 72.6631 37.6997 74.0534 37.6997 75.7684C37.6997 77.4833 39.0832 78.8736 40.7898 78.8736Z" fill="#F0F1F6"/>
<path d="M40.7897 73.2842C41.2786 73.2842 41.7566 73.4299 42.1631 73.7029C42.5697 73.9758 42.8865 74.3638 43.0736 74.8178C43.2607 75.2717 43.3097 75.7712 43.2143 76.2531C43.1189 76.735 42.8835 77.1776 42.5377 77.525C42.192 77.8725 41.7515 78.1091 41.272 78.2049C40.7924 78.3008 40.2954 78.2516 39.8437 78.0635C39.392 77.8755 39.0059 77.5571 38.7342 77.1486C38.4626 76.7401 38.3176 76.2598 38.3176 75.7684C38.3176 75.1096 38.578 74.4777 39.0417 74.0118C39.5053 73.5459 40.1341 73.2842 40.7897 73.2842ZM40.7897 72.0421C40.0563 72.0421 39.3394 72.2607 38.7296 72.6701C38.1198 73.0796 37.6445 73.6615 37.3638 74.3424C37.0832 75.0233 37.0097 75.7726 37.1528 76.4954C37.2959 77.2182 37.649 77.8822 38.1676 78.4033C38.6862 78.9245 39.347 79.2794 40.0663 79.4231C40.7856 79.5669 41.5312 79.4931 42.2087 79.2111C42.8863 78.9291 43.4655 78.4515 43.8729 77.8387C44.2804 77.2259 44.4979 76.5054 44.4979 75.7684C44.4979 74.7802 44.1072 73.8324 43.4118 73.1335C42.7163 72.4347 41.7732 72.0421 40.7897 72.0421Z" fill="#FF6903"/>
<path d="M40.7898 98.7473C42.4965 98.7473 43.88 97.3571 43.88 95.6421C43.88 93.9271 42.4965 92.5368 40.7898 92.5368C39.0832 92.5368 37.6997 93.9271 37.6997 95.6421C37.6997 97.3571 39.0832 98.7473 40.7898 98.7473Z" fill="#F0F1F6"/>
<path d="M40.7897 93.1579C41.2786 93.1579 41.7566 93.3036 42.1631 93.5765C42.5697 93.8495 42.8865 94.2375 43.0736 94.6914C43.2607 95.1453 43.3097 95.6448 43.2143 96.1267C43.1189 96.6086 42.8835 97.0513 42.5377 97.3987C42.192 97.7461 41.7515 97.9827 41.272 98.0786C40.7924 98.1744 40.2954 98.1252 39.8437 97.9372C39.392 97.7492 39.0059 97.4308 38.7342 97.0223C38.4626 96.6137 38.3176 96.1334 38.3176 95.6421C38.3176 94.9832 38.578 94.3514 39.0417 93.8855C39.5053 93.4196 40.1341 93.1579 40.7897 93.1579ZM40.7897 91.9158C40.0563 91.9158 39.3394 92.1343 38.7296 92.5438C38.1198 92.9532 37.6445 93.5352 37.3638 94.2161C37.0832 94.897 37.0097 95.6462 37.1528 96.3691C37.2959 97.0919 37.649 97.7559 38.1676 98.277C38.6862 98.7981 39.347 99.153 40.0663 99.2968C40.7856 99.4406 41.5312 99.3668 42.2087 99.0848C42.8863 98.8027 43.4655 98.3251 43.8729 97.7123C44.2804 97.0995 44.4979 96.3791 44.4979 95.6421C44.4979 94.6538 44.1072 93.706 43.4118 93.0072C42.7163 92.3084 41.7732 91.9158 40.7897 91.9158Z" fill="#FF6903"/>
<path d="M45.7339 110.754C47.4406 110.754 48.8241 109.364 48.8241 107.649C48.8241 105.934 47.4406 104.544 45.7339 104.544C44.0273 104.544 42.6438 105.934 42.6438 107.649C42.6438 109.364 44.0273 110.754 45.7339 110.754Z" fill="#F0F1F6"/>
<path d="M45.7338 105.165C46.2227 105.165 46.7007 105.311 47.1072 105.584C47.5138 105.857 47.8306 106.245 48.0177 106.698C48.2048 107.152 48.2538 107.652 48.1584 108.134C48.063 108.616 47.8276 109.058 47.4818 109.406C47.1361 109.753 46.6956 109.99 46.2161 110.086C45.7365 110.181 45.2395 110.132 44.7878 109.944C44.336 109.756 43.95 109.438 43.6783 109.029C43.4067 108.621 43.2617 108.14 43.2617 107.649C43.2617 106.99 43.5221 106.358 43.9858 105.893C44.4494 105.427 45.0782 105.165 45.7338 105.165ZM45.7338 103.923C45.0004 103.923 44.2835 104.141 43.6737 104.551C43.0638 104.96 42.5886 105.542 42.3079 106.223C42.0272 106.904 41.9538 107.653 42.0969 108.376C42.24 109.099 42.5931 109.763 43.1117 110.284C43.6303 110.805 44.2911 111.16 45.0104 111.304C45.7297 111.448 46.4753 111.374 47.1528 111.092C47.8304 110.81 48.4096 110.332 48.817 109.719C49.2245 109.107 49.442 108.386 49.442 107.649C49.442 106.661 49.0513 105.713 48.3559 105.014C47.6604 104.315 46.7173 103.923 45.7338 103.923Z" fill="#FF6903"/>
<path d="M105.477 95.2281H98.0605V102.681H105.477V95.2281Z" fill="white"/>
<path d="M101.768 97.7123C102.013 97.7123 102.252 97.7851 102.455 97.9216C102.658 98.0581 102.817 98.2521 102.91 98.479C103.004 98.706 103.028 98.9557 102.981 99.1967C102.933 99.4376 102.815 99.659 102.643 99.8327C102.47 100.006 102.249 100.125 102.01 100.173C101.77 100.221 101.521 100.196 101.295 100.102C101.07 100.008 100.877 99.8487 100.741 99.6444C100.605 99.4402 100.532 99.2 100.532 98.9544C100.532 98.6249 100.663 98.309 100.894 98.0761C101.126 97.8431 101.441 97.7123 101.768 97.7123ZM101.768 96.4702C101.28 96.4702 100.802 96.6158 100.395 96.8888C99.9885 97.1618 99.6717 97.5498 99.4846 98.0037C99.2975 98.4576 99.2485 98.9571 99.3439 99.439C99.4393 99.9209 99.6747 100.364 100.02 100.711C100.366 101.058 100.807 101.295 101.286 101.391C101.766 101.487 102.263 101.438 102.715 101.249C103.166 101.061 103.552 100.743 103.824 100.335C104.096 99.926 104.241 99.4457 104.241 98.9544C104.241 98.2955 103.98 97.6636 103.517 97.1978C103.053 96.7319 102.424 96.4702 101.768 96.4702Z" fill="#0E1556"/>
<path d="M105.477 95.2281V102.681H98.0603V95.2281H105.477ZM106.713 93.986H96.8242V103.923H106.713V93.986Z" fill="#0E1556"/>
<path d="M155.742 95.6421V100.834L150.798 105.803L150.749 105.753L145.854 100.83V95.6421H147.626L149.047 97.0705L150.794 98.826L152.541 97.0705L153.962 95.6421H155.742ZM158.214 93.1579H152.937L150.794 95.315L148.652 93.1579H143.382V101.853L150.798 109.305L158.214 101.853V93.1579Z" fill="#FF6903"/>
<path d="M160.807 95.7631L157.311 92.2499L147.423 102.186L150.919 105.7L160.807 95.7631Z" fill="#F0F1F6"/>
<path d="M161.511 90.2596H160.687V93.986H161.511V90.2596Z" fill="#F0F1F6"/>
<path d="M138.438 42.6456H135.966V50.0983H138.438V42.6456Z" fill="#FF6903"/>
<path d="M138.438 42.6456H131.022V45.1298H138.438V42.6456Z" fill="#FF6903"/>
<path d="M128.549 67.0737H131.021C131.021 65.0972 130.24 63.2016 128.849 61.8039C127.458 60.4063 125.572 59.6211 123.605 59.6211V62.1053C124.916 62.1053 126.174 62.6288 127.101 63.5605C128.028 64.4923 128.549 65.756 128.549 67.0737Z" fill="#0E1556"/>
<path d="M169.339 14.4912H163.983V16.9754H169.339V14.4912Z" fill="white"/>
<path d="M130.59 54.2803L129.716 53.402L125.599 57.5388L126.473 58.4171L130.59 54.2803Z" fill="white"/>
<path d="M131.021 67.0737H133.493C133.493 64.4383 132.452 61.9108 130.597 60.0473C128.743 58.1838 126.228 57.1368 123.605 57.1368V59.6211C125.572 59.6211 127.458 60.4062 128.849 61.8039C130.24 63.2015 131.021 65.0971 131.021 67.0737Z" fill="#F0F1F6"/>
<path d="M125.411 47.2104L114.954 57.7178L116.702 59.4744L127.159 48.967L125.411 47.2104Z" fill="#FF6903"/>
<path d="M136.037 43.5451L125.386 54.2487L127.134 56.0053L137.785 45.3017L136.037 43.5451Z" fill="#FF6903"/>
<path d="M124.841 47.7714V58.3086L127.313 55.8244V45.2872L124.841 47.7714Z" fill="#FF6903"/>
<path d="M121.133 53.4105H116.189V63.3474H121.133V53.4105Z" fill="white"/>
<path d="M119.897 54.6527V62.1053H117.425V54.6527H119.897ZM122.369 52.1685H114.953V64.5895H122.369V52.1685Z" fill="#0E1556"/>
<path d="M139.674 42.2316H138.438V50.0982H139.674V42.2316Z" fill="white"/>
</svg>
