<svg width="91" height="106" viewBox="0 0 91 106" fill="none" xmlns="http://www.w3.org/2000/svg">
<path d="M10.206 99.408V102H1.224V89.22H10.044V91.812H4.176V94.296H9.216V96.69H4.176V99.408H10.206ZM14.9514 94.692V102H11.9994V89.22H14.3394L20.2614 96.744V89.22H23.2134V102H20.8014L14.9514 94.692Z" fill="#FF6903"/>
<path d="M25.6576 102V89.22H31.1116C31.7236 89.22 32.2816 89.346 32.7856 89.598C33.3016 89.838 33.7456 90.168 34.1176 90.588C34.4896 90.996 34.7776 91.458 34.9816 91.974C35.1856 92.49 35.2876 93.018 35.2876 93.558C35.2876 94.29 35.1136 94.986 34.7656 95.646C34.4296 96.306 33.9556 96.846 33.3436 97.266C32.7436 97.674 32.0296 97.878 31.2016 97.878H28.6096V102H25.6576ZM28.6096 95.304H31.0216C31.2496 95.304 31.4596 95.238 31.6516 95.106C31.8436 94.974 31.9996 94.776 32.1196 94.512C32.2396 94.248 32.2996 93.924 32.2996 93.54C32.2996 93.144 32.2276 92.82 32.0836 92.568C31.9516 92.304 31.7776 92.112 31.5616 91.992C31.3576 91.872 31.1416 91.812 30.9136 91.812H28.6096V95.304ZM42.4704 102.108C41.5104 102.108 40.6404 101.928 39.8604 101.568C39.0924 101.196 38.4264 100.704 37.8624 100.092C37.3104 99.468 36.8844 98.772 36.5844 98.004C36.2844 97.224 36.1344 96.42 36.1344 95.592C36.1344 94.74 36.2904 93.93 36.6024 93.162C36.9264 92.394 37.3704 91.71 37.9344 91.11C38.5104 90.498 39.1884 90.018 39.9684 89.67C40.7484 89.322 41.6004 89.148 42.5244 89.148C43.4724 89.148 44.3304 89.334 45.0984 89.706C45.8784 90.066 46.5444 90.558 47.0964 91.182C47.6604 91.806 48.0924 92.508 48.3924 93.288C48.6924 94.056 48.8424 94.842 48.8424 95.646C48.8424 96.498 48.6864 97.308 48.3744 98.076C48.0624 98.844 47.6184 99.534 47.0424 100.146C46.4664 100.746 45.7884 101.226 45.0084 101.586C44.2404 101.934 43.3944 102.108 42.4704 102.108ZM39.1404 95.628C39.1404 96.12 39.2124 96.6 39.3564 97.068C39.5004 97.524 39.7104 97.932 39.9864 98.292C40.2744 98.652 40.6284 98.94 41.0484 99.156C41.4684 99.372 41.9484 99.48 42.4884 99.48C43.0524 99.48 43.5444 99.372 43.9644 99.156C44.3844 98.928 44.7324 98.628 45.0084 98.256C45.2844 97.884 45.4884 97.47 45.6204 97.014C45.7644 96.546 45.8364 96.072 45.8364 95.592C45.8364 95.1 45.7644 94.626 45.6204 94.17C45.4764 93.714 45.2604 93.306 44.9724 92.946C44.6844 92.574 44.3304 92.286 43.9104 92.082C43.4904 91.878 43.0164 91.776 42.4884 91.776C41.9244 91.776 41.4324 91.884 41.0124 92.1C40.6044 92.316 40.2564 92.61 39.9684 92.982C39.6924 93.342 39.4824 93.756 39.3384 94.224C39.2064 94.68 39.1404 95.148 39.1404 95.628ZM54.2505 89.238H56.9685L58.3005 93.324L59.6325 89.238H62.3685L60.1905 95.178L61.4865 98.58L64.6905 89.22H67.9125L62.9265 102H60.3705L58.3005 96.996L56.2485 102H53.6745L48.7065 89.22H51.9105L55.1325 98.58L56.3925 95.178L54.2505 89.238ZM78.0048 99.408V102H69.0228V89.22H77.8428V91.812H71.9748V94.296H77.0148V96.69H71.9748V99.408H78.0048ZM79.7982 102V89.22H85.5582C86.1582 89.22 86.7102 89.346 87.2142 89.598C87.7302 89.838 88.1742 90.168 88.5462 90.588C88.9182 90.996 89.2062 91.458 89.4102 91.974C89.6262 92.49 89.7342 93.012 89.7342 93.54C89.7342 94.068 89.6502 94.572 89.4822 95.052C89.3142 95.52 89.0742 95.946 88.7622 96.33C88.4502 96.702 88.0782 97.008 87.6462 97.248L90.4542 102H87.1962L84.7482 97.878H82.7502V102H79.7982ZM82.7502 95.304H85.4502C85.6902 95.304 85.9002 95.232 86.0802 95.088C86.2722 94.932 86.4282 94.722 86.5482 94.458C86.6682 94.194 86.7282 93.888 86.7282 93.54C86.7282 93.192 86.6562 92.892 86.5122 92.64C86.3802 92.376 86.2122 92.172 86.0082 92.028C85.8042 91.884 85.5882 91.812 85.3602 91.812H82.7502V95.304Z" fill="#0E1556"/>
<path d="M28.9848 51.1719V44.9095L39.7769 38.6904L34.3483 35.5628L28.9848 38.6543V32.4135L39.8421 26.1583L34.4134 23.0306L23.5562 29.2859V60.6126L61.5567 38.6615V51.208L50.6994 57.4633V51.2297L45.2707 54.3573V73.2025L50.6994 76.3301V63.7185L66.9853 54.3357V29.2786L28.9848 51.1719Z" fill="#0E1556"/>
<path d="M29.0835 63.7224V63.8013L39.875 70.013V57.5107L29.0835 63.7224Z" fill="#FF6903"/>
<path d="M66.9853 4.2113L39.8086 19.8613L50.6648 26.114L39.7434 32.4029L45.1787 35.5329L61.5355 26.114L50.6793 19.8613L66.9853 10.4713V4.2113Z" fill="#FF6903"/>
</svg>
