<svg width="24" height="24" viewBox="0 0 24 24" fill="none" xmlns="http://www.w3.org/2000/svg">
<path fill-rule="evenodd" clip-rule="evenodd" d="M16.1965 3.27677C17.0541 3.50095 17.8528 3.8525 18.5339 4.43407C19.3542 5.13473 19.7965 6.05408 20.0064 7.08833C20.4578 9.31535 20.5301 11.5452 19.9899 13.771C19.8954 14.1599 19.7523 14.533 19.603 14.9046C19.0408 16.303 17.9326 17.0437 16.5493 17.4591C15.4602 17.7862 14.3408 17.9297 13.2118 18.0181C12.6838 18.0594 11.8819 18.0453 11.2925 18.0349C11.2215 18.0336 11.1537 18.0324 11.0897 18.0314C10.8371 18.0272 10.7448 18.021 10.6751 18.0578C10.6052 18.0946 10.558 18.1745 10.3947 18.3428C10.2602 18.4815 10.1283 18.6166 9.99817 18.7499C9.50574 19.2541 9.03846 19.7326 8.55038 20.2842C8.34368 20.518 8.05963 20.8101 7.64797 21.2069C7.64797 20.922 7.64775 20.6401 7.64754 20.3605C7.64687 19.5034 7.64622 18.6676 7.65194 17.8317C7.65311 17.6619 7.60505 17.5581 7.44815 17.4926C7.36676 17.4588 7.28755 17.4196 7.20837 17.3803C7.12197 17.3376 7.0356 17.2948 6.94644 17.259C5.37959 16.6307 4.46505 15.4499 4.04453 13.847C3.68116 12.4616 3.63485 11.0511 3.70589 9.63121C3.75395 8.66881 3.87678 7.71854 4.13015 6.7853C4.48558 5.47601 5.28895 4.53252 6.45662 3.87747C7.45095 3.31969 8.53172 3.02389 9.65051 2.87226C11.8573 2.57284 14.0416 2.71339 16.1965 3.27677ZM11.9951 5.49631C11.7931 5.48674 11.6705 5.56932 11.6588 5.78371C11.6469 5.99996 11.7957 6.03473 11.9588 6.04803C12.3202 6.0773 12.6736 6.15125 13.0232 6.24118C14.3456 6.58096 15.3743 7.28488 15.9109 8.59102C16.1882 9.26566 16.3282 9.97157 16.3765 10.6966C16.3891 10.8842 16.4796 10.9844 16.6646 10.9824C16.8475 10.9803 16.9186 10.8562 16.9277 10.6933C16.9333 10.5921 16.932 10.4905 16.9307 10.3889C16.9301 10.3443 16.9295 10.2997 16.9295 10.2551C16.8978 9.27103 16.5832 8.21216 16.0004 7.42752C15.0059 6.08884 13.7127 5.5783 11.9951 5.49631ZM12.3215 7.33397C12.6887 7.38716 13.0425 7.48538 13.3917 7.60762C14.1698 7.88021 14.6658 8.41477 14.8879 9.20594C14.9646 9.47981 15.0263 9.75625 15.0622 10.04C15.066 10.0705 15.068 10.1028 15.07 10.1355C15.0802 10.3003 15.091 10.4757 15.3449 10.4827C15.5541 10.4884 15.6098 10.394 15.6286 10.0282C15.6552 9.51235 15.478 8.82453 15.1765 8.33895C14.5316 7.30051 13.5952 6.86427 12.3963 6.75054C12.2084 6.73246 12.0805 6.81026 12.0495 7.00587C12.0168 7.21395 12.1437 7.30808 12.3215 7.33397ZM14.3974 9.72198C14.3999 9.69391 14.4025 9.66334 14.4063 9.62923C14.3287 8.9456 14.0341 8.51263 13.4032 8.20493C13.2495 8.13028 12.9844 8.04571 12.8131 8.05633C12.5612 8.07172 12.4215 8.18102 12.4268 8.36461C12.4321 8.55223 12.568 8.58335 12.7015 8.61392C12.7257 8.61948 12.7499 8.62502 12.7732 8.63148C12.8038 8.63995 12.835 8.64631 12.8661 8.65267C12.8951 8.65859 12.924 8.66449 12.9524 8.67208C13.4326 8.80108 13.7087 9.11752 13.8021 9.60041C13.8081 9.6317 13.8128 9.66333 13.8176 9.69493C13.8266 9.75486 13.8356 9.81471 13.8531 9.87207C13.8917 9.99897 13.9711 10.0864 14.1185 10.0841C14.264 10.0817 14.3458 10.0011 14.378 9.86741C14.3886 9.82332 14.3926 9.77754 14.3974 9.72198ZM15.2306 16.1963C16.0276 15.9711 16.5974 15.4736 16.9303 14.7196C17.1171 14.2967 17.0269 13.942 16.674 13.6411C16.1524 13.196 15.6036 12.7836 15.0211 12.4222C14.3418 12.0006 13.8402 12.1131 13.3717 12.7619L13.3678 12.7673C13.3465 12.7967 13.3252 12.8262 13.3025 12.8543C13.0871 13.1191 12.8179 13.2238 12.4827 13.1261C12.1164 13.0195 11.7916 12.827 11.4739 12.6244C10.6319 12.0878 10.0078 11.3626 9.6245 10.4386C9.39073 9.87522 9.49992 9.50991 9.9888 9.1524C10.0048 9.1407 10.0208 9.12913 10.0369 9.11756C10.0834 9.08415 10.1298 9.05071 10.1736 9.01406C10.5416 8.70555 10.6273 8.40217 10.4229 7.97154C10.046 7.17815 9.53013 6.48133 8.88843 5.88017C8.70658 5.70964 8.48832 5.62415 8.23601 5.63803C7.32357 5.68842 6.49092 6.56579 6.48894 7.51466C6.47914 7.768 6.54166 8.04525 6.64898 8.31119C8.13639 11.9957 10.7629 14.5484 14.3976 16.0956C14.6616 16.208 14.9418 16.2781 15.2306 16.1963Z" fill="#665CAC"/>
</svg>
