<svg width="24" height="24" viewBox="0 0 24 24" fill="none" xmlns="http://www.w3.org/2000/svg">
<path fill-rule="evenodd" clip-rule="evenodd" d="M12.1521 3.03906C7.29992 3.03906 3.36624 6.97241 3.36624 11.8248C3.36624 13.4844 3.82689 15.037 4.62688 16.3613L3.04102 21.0747L7.90546 19.5177C9.16435 20.2134 10.6119 20.6103 12.1521 20.6103C17.0051 20.6103 20.9387 16.6764 20.9387 11.8248C20.9387 6.97241 17.0051 3.03906 12.1521 3.03906ZM14.7668 13.034C14.9697 13.1164 16.0516 13.7003 16.2719 13.8209C16.3136 13.8438 16.3528 13.8645 16.3891 13.8837C16.5444 13.966 16.6492 14.0214 16.6918 14.0989C16.7443 14.1944 16.728 14.6436 16.5213 15.1599C16.3146 15.6761 15.3797 16.1475 14.9672 16.1693C14.8966 16.173 14.8377 16.185 14.7773 16.1972C14.4854 16.2563 14.1582 16.3226 12.2968 15.5078C10.221 14.5985 8.90924 12.4865 8.63818 12.0501C8.61595 12.0143 8.60072 11.9898 8.59264 11.9781L8.59155 11.9766C8.48103 11.8173 7.72269 10.7244 7.76396 9.62505C7.8026 8.5921 8.3303 8.0699 8.57324 7.82949C8.58992 7.81298 8.60526 7.79781 8.61901 7.78388C8.83271 7.56728 9.07791 7.52016 9.22746 7.52575C9.3038 7.52861 9.37991 7.53642 9.45353 7.54396C9.52422 7.55121 9.59262 7.55823 9.65673 7.5604C9.6725 7.56104 9.68913 7.56063 9.70647 7.56019C9.833 7.55703 9.99755 7.55291 10.1471 7.9537C10.2032 8.10394 10.285 8.32639 10.3713 8.56122C10.547 9.03889 10.7415 9.56774 10.7763 9.64406C10.8284 9.75837 10.8607 9.89087 10.7804 10.0376C10.7688 10.0588 10.758 10.0789 10.7477 10.0981C10.6866 10.2118 10.642 10.2948 10.5421 10.4031C10.5026 10.4459 10.4616 10.4922 10.4206 10.5385C10.3403 10.629 10.2601 10.7196 10.1909 10.7838C10.0745 10.8912 9.95267 11.0081 10.0753 11.2375C10.1979 11.4667 10.6205 12.2177 11.2648 12.8371C11.9578 13.5033 12.5709 13.7968 12.8813 13.9454C12.9417 13.9743 12.9907 13.9977 13.0265 14.0174C13.2469 14.1383 13.3783 14.1247 13.5149 13.9798C13.651 13.8349 14.0998 13.346 14.2578 13.1278C14.416 12.9088 14.564 12.9516 14.7668 13.034Z" fill="#25D366"/>
</svg>
